<svg width="95" height="60" viewBox="0 0 95 60" fill="none" xmlns="http://www.w3.org/2000/svg">
<g clip-path="url(#clip0)">
<path d="M76.8164 35.3771C75.9433 35.6982 74.4099 35.9622 72.6353 36.1744C67.8099 36.7524 61.1974 36.9575 61.1974 36.9575C61.1974 36.9575 27.2044 39.7714 1.7273 29.3061C1.7273 29.3061 -1.9784 27.3672 1.45923 24.7576C1.98858 24.3676 2.55133 24.025 3.14096 23.7337L3.18296 23.6918C3.57397 23.3311 3.99654 23.006 4.4456 22.7205C5.76543 21.8688 7.99403 20.8592 10.707 21.3167L77.6206 32.1182C77.6206 32.1182 80.0646 34.1793 76.8164 35.3771Z" fill="#3F3D56"/>
<path d="M63.484 30.4816L77.4919 20.5622L83.6657 21.628L77.6206 32.1182C77.6206 32.1182 63.6449 32.2297 63.484 30.4816Z" fill="#3F3D56"/>
<path d="M28.2178 24.4552L56.1201 16.6451L60.6175 17.5833L48.0134 23.2422L44.0745 27.641L28.2178 24.4552Z" fill="#3F3D56"/>
<path d="M72.6353 36.1744C67.8099 36.7524 61.1974 36.9575 61.1974 36.9575C61.1974 36.9575 27.2044 39.7714 1.7273 29.3061C1.7273 29.3061 -1.9784 27.3672 1.45923 24.7576L1.47085 24.8057C1.47085 24.8057 6.96819 28.5141 33.2343 31.6098L72.6353 36.1744Z" fill="#FFD600"/>
<path d="M68.1503 35.9604L80.6248 41.0441L83.7586 40.6971L76.2971 35.0997C76.2971 35.0997 67.2719 33.1778 68.1503 35.9604Z" fill="#3F3D56"/>
<path d="M5.99414 25.3489C5.39901 25.3587 4.03539 24.3624 3.18738 23.6918C3.57839 23.3311 4.00096 23.006 4.45002 22.7205C5.13361 23.244 6.34979 24.0913 7.02623 24.0583C8.00292 24.0182 6.89041 25.3328 5.99414 25.3489Z" fill="#FFD600"/>
<path d="M62.6664 53.533L54.6572 53.9513L32.1388 38.7966L27.9586 35.9827L25.9283 34.6155C29.7377 31.4047 45.2799 35.8329 45.2799 35.8329C45.5774 36.0835 45.6722 36.5 45.6588 36.9602C45.6329 37.8217 45.2272 38.8331 45.0708 39.197C45.0333 39.2862 45.01 39.3335 45.01 39.3335L62.6664 53.533Z" fill="#3F3D56"/>
<path d="M36.2895 45.6756L34.9 46.5532L35.7417 45.0254C35.5034 44.8356 35.2085 44.7305 34.9035 44.7266H34.8812C34.7848 44.7285 34.6885 44.7214 34.5935 44.7052L34.1234 45.0031L34.3245 44.6375C33.9915 44.5208 33.7038 44.3023 33.5024 44.0131L32.6615 44.5483L33.1923 43.5833C32.7009 42.9937 32.0378 42.6325 31.3077 42.6325C30.4329 42.6325 29.6537 43.1516 29.1506 43.9614C29.0014 44.2039 28.7905 44.4027 28.5394 44.5374C28.2883 44.6721 28.0058 44.738 27.7209 44.7284H27.6744C26.7084 44.7284 25.9257 45.821 25.9257 47.1695C25.9257 48.518 26.7084 49.6105 27.6744 49.6105C27.8867 49.6099 28.0956 49.5575 28.2829 49.458C28.6118 49.2988 28.9714 49.2127 29.3369 49.2056C29.7024 49.1985 30.065 49.2706 30.3999 49.417C30.683 49.5431 30.9896 49.6083 31.2997 49.6083C31.6098 49.6083 31.9164 49.5431 32.1995 49.417C32.5316 49.2734 32.8907 49.2026 33.2525 49.2095C33.6144 49.2165 33.9705 49.3009 34.2968 49.4571C34.4831 49.5541 34.6899 49.6052 34.9 49.6061C35.8659 49.6061 36.6487 48.5135 36.6487 47.165C36.6557 46.6464 36.5322 46.1343 36.2895 45.6756Z" fill="#F2F2F2"/>
<path opacity="0.03" d="M33.6757 49.2476C33.1711 49.1523 32.6495 49.2088 32.1772 49.4099C31.8942 49.5363 31.5878 49.6017 31.2778 49.6017C30.9678 49.6017 30.6613 49.5363 30.3784 49.4099C30.0437 49.2631 29.6809 49.1907 29.3154 49.1978C28.9499 49.2049 28.5902 49.2913 28.2615 49.4509C28.0736 49.5501 27.8645 49.6024 27.652 49.6034C26.7942 49.6034 26.0802 48.7401 25.9319 47.6021C26.1035 47.4777 26.2492 47.321 26.3608 47.141C26.8639 46.332 27.6431 45.813 28.5179 45.813C29.3927 45.813 30.1639 46.3213 30.6661 47.124C30.816 47.366 31.026 47.5651 31.2757 47.7022C31.5254 47.8392 31.8064 47.9095 32.0914 47.9062H32.1137C32.7964 47.9044 33.388 48.4502 33.6757 49.2476Z" fill="#3F3D56"/>
<path d="M75.518 44.5162L74.1285 45.3938L74.9702 43.866C74.7319 43.6762 74.4369 43.571 74.132 43.5672H74.1097C74.0133 43.5691 73.917 43.5619 73.822 43.5458L73.3519 43.8437L73.553 43.478C73.22 43.3614 72.9323 43.1429 72.7309 42.8537L71.89 43.3888L72.4208 42.4238C71.9294 41.8343 71.2663 41.4731 70.5363 41.4731C69.6614 41.4731 68.8822 41.9922 68.3791 42.802C68.2299 43.0445 68.019 43.2432 67.7679 43.3779C67.5168 43.5127 67.2343 43.5786 66.9494 43.569H66.9029C65.937 43.569 65.1542 44.6615 65.1542 46.0101C65.1542 47.3586 65.937 48.4511 66.9029 48.4511C67.1152 48.4504 67.3241 48.3981 67.5115 48.2986C67.8403 48.1394 68.1999 48.0532 68.5654 48.0461C68.9309 48.0391 69.2935 48.1112 69.6284 48.2576C69.9115 48.3837 70.2181 48.4489 70.5282 48.4489C70.8383 48.4489 71.1449 48.3837 71.4281 48.2576C71.7601 48.1139 72.1192 48.0432 72.481 48.0501C72.8429 48.057 73.199 48.1415 73.5253 48.2977C73.7116 48.3947 73.9184 48.4458 74.1285 48.4467C75.0944 48.4467 75.8772 47.3541 75.8772 46.0056C75.8842 45.4869 75.7607 44.9748 75.518 44.5162Z" fill="#F2F2F2"/>
<path opacity="0.03" d="M72.9042 48.0881C72.3996 47.9928 71.878 48.0493 71.4057 48.2504C71.1228 48.3769 70.8163 48.4422 70.5063 48.4422C70.1963 48.4422 69.8898 48.3769 69.6069 48.2504C69.2722 48.1036 68.9094 48.0313 68.5439 48.0384C68.1784 48.0454 67.8187 48.1318 67.49 48.2915C67.3022 48.3906 67.0931 48.443 66.8806 48.444C66.0227 48.444 65.3087 47.5806 65.1604 46.4426C65.332 46.3182 65.4777 46.1616 65.5893 45.9815C66.0924 45.1726 66.8716 44.6535 67.7464 44.6535C68.6213 44.6535 69.3924 45.1619 69.8946 45.9645C70.0449 46.2071 70.2556 46.4067 70.5062 46.5438C70.7567 46.6809 71.0386 46.7508 71.3244 46.7467H71.3467C72.0249 46.7449 72.6165 47.2908 72.9042 48.0881Z" fill="#3F3D56"/>
<path d="M75.518 15.2627L74.1285 16.1403L74.9702 14.6125C74.7319 14.4227 74.4369 14.3175 74.132 14.3137H74.1097C74.0133 14.3156 73.917 14.3084 73.822 14.2923L73.3519 14.5902L73.553 14.2245C73.22 14.1079 72.9323 13.8894 72.7309 13.6002L71.89 14.1353L72.4208 13.1703C71.9293 12.5808 71.2663 12.2196 70.5362 12.2196C69.6614 12.2196 68.8822 12.7386 68.3791 13.5485C68.2299 13.791 68.019 13.9897 67.7679 14.1244C67.5168 14.2592 67.2343 14.3251 66.9494 14.3155H66.9029C65.937 14.3155 65.1542 15.408 65.1542 16.7565C65.1542 18.1051 65.937 19.1976 66.9029 19.1976C67.1152 19.1969 67.3241 19.1446 67.5115 19.0451C67.8403 18.8859 68.1999 18.7997 68.5654 18.7926C68.9309 18.7856 69.2935 18.8577 69.6284 19.0041C69.9112 19.1309 70.2176 19.1968 70.5277 19.1976C70.8378 19.1984 71.1446 19.134 71.428 19.0085C71.7601 18.8649 72.1192 18.7941 72.481 18.8011C72.8429 18.808 73.199 18.8924 73.5253 19.0487C73.7115 19.1457 73.9184 19.1968 74.1285 19.1976C75.0944 19.1976 75.8772 18.1051 75.8772 16.7565C75.8849 16.2364 75.7614 15.7227 75.518 15.2627Z" fill="#F2F2F2"/>
<path opacity="0.03" d="M72.9042 18.8346C72.3996 18.7393 71.878 18.7958 71.4057 18.9969C71.1228 19.1234 70.8163 19.1887 70.5063 19.1887C70.1963 19.1887 69.8898 19.1234 69.6069 18.9969C69.2722 18.8501 68.9094 18.7778 68.5439 18.7849C68.1784 18.792 67.8187 18.8783 67.49 19.038C67.3022 19.1372 67.0931 19.1895 66.8806 19.1905C66.0227 19.1905 65.3087 18.3271 65.1604 17.1891C65.332 17.0647 65.4777 16.9081 65.5893 16.728C66.0924 15.9191 66.8716 15.4 67.7464 15.4C68.6213 15.4 69.3924 15.9084 69.8946 16.7111C70.0449 16.9537 70.2556 17.1532 70.5062 17.2903C70.7567 17.4274 71.0386 17.4973 71.3244 17.4932H71.3467C72.0249 17.4915 72.6165 18.0373 72.9042 18.8346Z" fill="#3F3D56"/>
<path d="M18.1479 12.1063L17.4554 12.5442L17.8753 11.7826C17.7567 11.6874 17.6094 11.6346 17.4571 11.6327H17.4464C17.3983 11.6332 17.3501 11.6296 17.3026 11.622L17.0684 11.7701L17.1685 11.5917C17.0024 11.5336 16.8589 11.4247 16.7584 11.2804L16.3393 11.548L16.6073 11.0673C16.4959 10.9234 16.3536 10.8061 16.191 10.724C16.0284 10.642 15.8495 10.5971 15.6673 10.5928C15.2312 10.5928 14.8425 10.8514 14.595 11.2555C14.5205 11.3767 14.415 11.4761 14.2894 11.5433C14.1638 11.6105 14.0226 11.6433 13.8801 11.6381H13.8569C13.3752 11.6381 12.9847 12.1839 12.9847 12.8564C12.9847 13.5289 13.3752 14.0738 13.8569 14.0738C13.9628 14.0734 14.0671 14.0474 14.1607 13.998C14.3247 13.9183 14.5042 13.8752 14.6866 13.8716C14.8689 13.8681 15.0499 13.9042 15.2169 13.9775C15.3576 14.0399 15.5098 14.0721 15.6637 14.0721C15.8176 14.0721 15.9699 14.0399 16.1105 13.9775C16.2762 13.9057 16.4554 13.8704 16.6359 13.874C16.8165 13.8775 16.9942 13.9198 17.1569 13.998C17.2497 14.0459 17.3526 14.0713 17.4571 14.072C17.9388 14.072 18.3293 13.5271 18.3293 12.8546C18.3327 12.5939 18.2703 12.3366 18.1479 12.1063Z" fill="#F2F2F2"/>
<path opacity="0.03" d="M16.8441 13.8883C16.5923 13.8401 16.3318 13.8684 16.0962 13.9694C15.9554 14.0315 15.8033 14.0637 15.6494 14.064C15.4937 14.0639 15.3399 14.0308 15.1981 13.9668C15.031 13.8938 14.85 13.8579 14.6676 13.8616C14.4853 13.8653 14.3059 13.9085 14.1419 13.9882C14.0486 14.0376 13.9446 14.0636 13.839 14.064C13.4109 14.064 13.0544 13.6332 12.9802 13.066C13.0656 13.0034 13.1384 12.9254 13.1947 12.8359C13.4449 12.4318 13.8336 12.1732 14.267 12.1732C14.7004 12.1732 15.0873 12.4292 15.3393 12.8278C15.4144 12.9491 15.5198 13.0487 15.6451 13.1171C15.7704 13.1854 15.9114 13.22 16.0542 13.2176H16.0658C16.4027 13.2176 16.7002 13.4905 16.8441 13.8883Z" fill="#3F3D56"/>
<path d="M79.8054 55.719L79.1128 56.1569L79.5328 55.3953C79.4141 55.3001 79.2669 55.2473 79.1146 55.2454H79.1039C79.0557 55.2459 79.0076 55.2423 78.96 55.2347L78.7259 55.3828L78.826 55.2044C78.6599 55.1463 78.5163 55.0374 78.4158 54.8931L77.9967 55.1607L78.2648 54.68C78.1533 54.5361 78.0111 54.4188 77.8485 54.3367C77.6859 54.2547 77.5069 54.2098 77.3248 54.2055C76.8887 54.2055 76.5 54.4641 76.2525 54.8682C76.178 54.9894 76.0725 55.0888 75.9469 55.156C75.8213 55.2232 75.68 55.256 75.5376 55.2508H75.5144C75.0327 55.2508 74.6422 55.7966 74.6422 56.4691C74.6422 57.1416 75.0327 57.6865 75.5144 57.6865C75.6203 57.6861 75.7245 57.6601 75.8182 57.6107C75.9822 57.531 76.1616 57.4879 76.344 57.4843C76.5264 57.4808 76.7074 57.5169 76.8744 57.5902C77.015 57.6526 77.1673 57.6848 77.3212 57.6848C77.4751 57.6848 77.6273 57.6526 77.768 57.5902C77.9337 57.5184 78.1129 57.4831 78.2934 57.4867C78.474 57.4902 78.6517 57.5325 78.8144 57.6107C78.9072 57.6586 79.0101 57.684 79.1146 57.6847C79.5963 57.6847 79.9868 57.1398 79.9868 56.4673C79.9902 56.2066 79.9278 55.9493 79.8054 55.719Z" fill="#F2F2F2"/>
<path opacity="0.03" d="M78.5017 57.501C78.2499 57.4528 77.9893 57.4811 77.7538 57.5821C77.613 57.6442 77.4608 57.6764 77.307 57.6767C77.1513 57.6766 76.9975 57.6435 76.8557 57.5794C76.6886 57.5065 76.5076 57.4706 76.3252 57.4743C76.1429 57.478 75.9635 57.5212 75.7995 57.6008C75.7062 57.6503 75.6022 57.6763 75.4966 57.6767C75.0685 57.6767 74.712 57.2459 74.6378 56.6787C74.7232 56.6161 74.796 56.5381 74.8523 56.4486C75.1025 56.0445 75.4912 55.7859 75.9246 55.7859C76.358 55.7859 76.7449 56.0419 76.9969 56.4405C77.072 56.5618 77.1774 56.6614 77.3027 56.7297C77.428 56.7981 77.569 56.8327 77.7118 56.8303H77.7234C78.0603 56.8303 78.3578 57.1032 78.5017 57.501Z" fill="#3F3D56"/>
<path d="M15.4671 58.0379L14.7746 58.4758L15.1946 57.7141C15.0759 57.6189 14.9286 57.5662 14.7764 57.5643H14.7656C14.7175 57.5648 14.6693 57.5612 14.6218 57.5536L14.3876 57.7016L14.4877 57.5233C14.3216 57.4652 14.1781 57.3562 14.0776 57.212L13.6585 57.4796L13.9266 56.9988C13.8151 56.8549 13.6729 56.7377 13.5102 56.6556C13.3476 56.5735 13.1687 56.5287 12.9865 56.5244C12.5504 56.5244 12.1617 56.783 11.9142 57.187C11.8397 57.3083 11.7342 57.4076 11.6086 57.4749C11.483 57.5421 11.3418 57.5748 11.1993 57.5696H11.1761C10.6945 57.5696 10.304 58.1155 10.304 58.7879C10.304 59.4604 10.6945 60.0053 11.1761 60.0053C11.282 60.005 11.3863 59.979 11.4799 59.9295C11.6439 59.8498 11.8234 59.8067 12.0058 59.8032C12.1882 59.7996 12.3691 59.8358 12.5361 59.909C12.6768 59.9714 12.829 60.0037 12.9829 60.0037C13.1369 60.0037 13.2891 59.9714 13.4297 59.909C13.5954 59.8373 13.7746 59.802 13.9552 59.8055C14.1357 59.8091 14.3134 59.8514 14.4761 59.9295C14.5689 59.9775 14.6718 60.0029 14.7764 60.0036C15.258 60.0036 15.6485 59.4586 15.6485 58.7862C15.6519 58.5255 15.5895 58.2682 15.4671 58.0379Z" fill="#F2F2F2"/>
<path opacity="0.03" d="M14.1634 59.8198C13.9116 59.7717 13.6511 59.8 13.4155 59.901C13.2747 59.963 13.1226 59.9952 12.9687 59.9955C12.8131 59.9955 12.6592 59.9623 12.5174 59.8983C12.3503 59.8254 12.1693 59.7895 11.987 59.7932C11.8046 59.7969 11.6252 59.8401 11.4612 59.9197C11.3679 59.9692 11.2639 59.9952 11.1583 59.9955C10.7303 59.9955 10.3737 59.5648 10.2996 58.9975C10.3849 58.935 10.4577 58.8569 10.514 58.7674C10.7642 58.3634 11.1529 58.1048 11.5863 58.1048C12.0197 58.1048 12.4066 58.3607 12.6586 58.7594C12.7337 58.8806 12.8391 58.9803 12.9644 59.0486C13.0898 59.1169 13.2307 59.1516 13.3735 59.1491H13.3851C13.722 59.1491 14.0196 59.422 14.1634 59.8198Z" fill="#3F3D56"/>
<path d="M47.4593 3.04396L46.0698 3.92157L46.9115 2.39379C46.6732 2.20397 46.3782 2.09884 46.0733 2.09501H46.051C45.9546 2.09689 45.8583 2.08972 45.7633 2.0736L45.2932 2.37149L45.4943 2.00582C45.1613 1.88917 44.8736 1.67071 44.6722 1.38151L43.8313 1.91663L44.3621 0.951624C43.8706 0.362095 43.2076 0.00088501 42.4775 0.00088501C41.6027 0.00088501 40.8235 0.519956 40.3204 1.32978C40.1712 1.57229 39.9603 1.77102 39.7092 1.90575C39.4581 2.04048 39.1756 2.1064 38.8907 2.09679H38.8442C37.8782 2.09679 37.0955 3.18934 37.0955 4.53785C37.0955 5.88637 37.8782 6.97892 38.8442 6.97892C39.0565 6.97824 39.2654 6.92589 39.4527 6.8264C39.7816 6.66716 40.1412 6.58103 40.5067 6.57394C40.8722 6.56686 41.2348 6.639 41.5697 6.78538C41.8525 6.9122 42.1589 6.97815 42.469 6.97892C42.7791 6.97968 43.0859 6.91526 43.3693 6.78984C43.7014 6.6462 44.0605 6.57544 44.4223 6.58237C44.7842 6.58929 45.1403 6.67373 45.4666 6.82997C45.6528 6.92699 45.8597 6.97806 46.0698 6.97892C47.0357 6.97892 47.8185 5.88637 47.8185 4.53785C47.8262 4.0177 47.7027 3.50397 47.4593 3.04396Z" fill="#F2F2F2"/>
<path opacity="0.03" d="M44.8456 6.61593C44.3411 6.52064 43.8195 6.57714 43.3471 6.77825C43.0642 6.90468 42.7577 6.97004 42.4477 6.97004C42.1377 6.97004 41.8312 6.90468 41.5483 6.77825C41.2136 6.63146 40.8509 6.5591 40.4853 6.56618C40.1198 6.57327 39.7602 6.65963 39.4314 6.81928C39.2436 6.91847 39.0345 6.9708 38.822 6.97179C37.9641 6.97179 37.2501 6.10845 37.1018 4.97042C37.2735 4.84601 37.4191 4.68939 37.5307 4.50932C38.0338 3.70039 38.813 3.18132 39.6879 3.18132C40.5627 3.18132 41.3338 3.68969 41.836 4.49238C41.9863 4.73497 42.197 4.93454 42.4476 5.07162C42.6982 5.20871 42.9801 5.27862 43.2658 5.27455H43.2881C43.9664 5.27277 44.5579 5.81859 44.8456 6.61593Z" fill="#3F3D56"/>
<path d="M94.8177 18.3494L94.1252 18.7874L94.5451 18.0257C94.4264 17.9305 94.2792 17.8777 94.1269 17.8759H94.1162C94.0681 17.8764 94.0199 17.8728 93.9723 17.8652L93.7382 18.0132L93.8383 17.8348C93.6722 17.7767 93.5287 17.6678 93.4282 17.5236L93.0091 17.7911L93.2771 17.3104C93.1657 17.1665 93.0234 17.0493 92.8608 16.9672C92.6982 16.8851 92.5193 16.8403 92.3371 16.8359C91.901 16.8359 91.5123 17.0946 91.2648 17.4986C91.1903 17.6199 91.0848 17.7192 90.9592 17.7865C90.8336 17.8537 90.6924 17.8864 90.5499 17.8812H90.5267C90.045 17.8812 89.6545 18.427 89.6545 19.0995C89.6545 19.772 90.045 20.3169 90.5267 20.3169C90.6326 20.3166 90.7369 20.2906 90.8305 20.2411C90.9945 20.1614 91.174 20.1183 91.3563 20.1148C91.5387 20.1112 91.7197 20.1473 91.8867 20.2206C92.0274 20.283 92.1796 20.3152 92.3335 20.3152C92.4874 20.3152 92.6397 20.283 92.7803 20.2206C92.946 20.1489 93.1252 20.1136 93.3057 20.1171C93.4863 20.1206 93.664 20.1629 93.8267 20.2411C93.9195 20.2891 94.0224 20.3144 94.1269 20.3151C94.6086 20.3151 94.9991 19.7702 94.9991 19.0977C95.0025 18.8371 94.9401 18.5797 94.8177 18.3494Z" fill="#F2F2F2"/>
<path opacity="0.03" d="M93.5139 20.1314C93.2621 20.0833 93.0016 20.1115 92.766 20.2126C92.6252 20.2746 92.4731 20.3068 92.3192 20.3071C92.1651 20.3064 92.0128 20.2733 91.8724 20.2099C91.7053 20.1369 91.5243 20.1011 91.342 20.1048C91.1596 20.1085 90.9802 20.1516 90.8162 20.2313C90.7229 20.2807 90.6189 20.3068 90.5133 20.3071C90.0852 20.3071 89.7287 19.8763 89.6545 19.3091C89.7399 19.2466 89.8127 19.1685 89.869 19.079C90.1192 18.675 90.5079 18.4163 90.9413 18.4163C91.3747 18.4163 91.7616 18.6723 92.0136 19.071C92.0883 19.1915 92.193 19.2908 92.3175 19.3591C92.4419 19.4274 92.582 19.4624 92.724 19.4607H92.7356C93.0725 19.4607 93.3701 19.7336 93.5139 20.1314Z" fill="#3F3D56"/>
</g>
<defs>
<clipPath id="clip0">
<rect width="95" height="60" fill="white"/>
</clipPath>
</defs>
</svg>
