<svg width="102" height="119" viewBox="0 0 102 119" fill="none" xmlns="http://www.w3.org/2000/svg">
<path d="M69.4306 105.766C83.8426 105.766 95.5258 94.0123 95.5258 79.5137C95.5258 65.0151 83.8426 53.2617 69.4306 53.2617C55.0186 53.2617 43.3353 65.0151 43.3353 79.5137C43.3353 94.0123 55.0186 105.766 69.4306 105.766Z" fill="#3F3D56"/>
<path d="M53.0021 81.621C53.6502 80.8405 54.4607 80.2126 55.3765 79.7818C56.2922 79.3509 57.2908 79.1276 58.3018 79.1276C59.3127 79.1276 60.3114 79.3509 61.2271 79.7818C62.1429 80.2126 62.9534 80.8405 63.6015 81.621C64.7105 80.556 65.477 79.1813 65.8022 77.674C66.1274 76.1667 65.9965 74.596 65.4262 73.1643C64.856 71.7326 63.8726 70.5055 62.6028 69.6412C61.333 68.7769 59.8349 68.3149 58.3018 68.3149C56.7686 68.3149 55.2706 68.7769 54.0008 69.6412C52.731 70.5055 51.7476 71.7326 51.1773 73.1643C50.6071 74.596 50.4762 76.1667 50.8014 77.674C51.1266 79.1813 51.8931 80.556 53.0021 81.621Z" fill="white"/>
<path d="M73.7246 81.621C74.3727 80.8405 75.1832 80.2126 76.099 79.7818C77.0147 79.3509 78.0134 79.1276 79.0243 79.1276C80.0353 79.1276 81.0339 79.3509 81.9496 79.7818C82.8654 80.2126 83.6759 80.8405 84.324 81.621C85.433 80.556 86.1995 79.1813 86.5247 77.674C86.8499 76.1667 86.719 74.596 86.1487 73.1643C85.5785 71.7326 84.5951 70.5055 83.3253 69.6412C82.0555 68.7769 80.5575 68.3149 79.0243 68.3149C77.4912 68.3149 75.9931 68.7769 74.7233 69.6412C73.4535 70.5055 72.4701 71.7326 71.8999 73.1643C71.3296 74.596 71.1987 76.1667 71.5239 77.674C71.8491 79.1813 72.6156 80.556 73.7246 81.621Z" fill="white"/>
<path d="M55.6835 76.0629C57.1416 76.0629 58.3236 74.8738 58.3236 73.4069C58.3236 71.9401 57.1416 70.7509 55.6835 70.7509C54.2254 70.7509 53.0433 71.9401 53.0433 73.4069C53.0433 74.8738 54.2254 76.0629 55.6835 76.0629Z" fill="#3F3D56"/>
<path d="M76.4054 76.0629C77.8635 76.0629 79.0455 74.8738 79.0455 73.4069C79.0455 71.9401 77.8635 70.7509 76.4054 70.7509C74.9473 70.7509 73.7653 71.9401 73.7653 73.4069C73.7653 74.8738 74.9473 76.0629 76.4054 76.0629Z" fill="#3F3D56"/>
<path d="M50.6267 89.1652C52.3222 89.1652 53.6967 87.7824 53.6967 86.0767C53.6967 84.371 52.3222 82.9882 50.6267 82.9882C48.9311 82.9882 47.5566 84.371 47.5566 86.0767C47.5566 87.7824 48.9311 89.1652 50.6267 89.1652Z" fill="#FF6584"/>
<path d="M85.932 89.1652C87.6275 89.1652 89.002 87.7824 89.002 86.0767C89.002 84.371 87.6275 82.9882 85.932 82.9882C84.2364 82.9882 82.8619 84.371 82.8619 86.0767C82.8619 87.7824 84.2364 89.1652 85.932 89.1652Z" fill="#FF6584"/>
<path d="M68.2793 79.8997L65.9768 89.9372L69.8143 86.0767L68.2793 79.8997Z" fill="#FF6584"/>
<path d="M80.1102 118.506L77.4961 116.299L77.557 118.506H76.7451L76.6802 116.172L73.1508 118.506H71.6732L76.6539 115.212L76.4609 108.297L76.3168 103.074L77.1267 103.052L77.2728 108.297L77.4656 115.206L81.3725 118.506H80.1102Z" fill="#3F3D56"/>
<path d="M67.8292 118.506L65.2151 116.299L65.276 118.506H64.4663L64.4013 116.172L60.8718 118.506H59.3943L64.3729 115.212L64.1801 108.297L64.036 103.074L64.8478 103.052L64.9939 108.297L65.1847 115.206L69.0917 118.506H67.8292Z" fill="#3F3D56"/>
<path d="M69.8143 51.3314C69.0983 51.3314 68.4666 51.8909 68.0443 52.7503C67.6721 51.458 66.89 50.5592 65.9768 50.5592C65.9147 50.5655 65.8531 50.5759 65.7924 50.5904C65.4414 49.2106 64.6255 48.2429 63.6742 48.2429C62.4026 48.2429 61.3717 49.9713 61.3717 52.1035C61.3717 54.2356 62.4026 55.9641 63.6742 55.9641C63.7363 55.9579 63.7979 55.9475 63.8586 55.9329C64.2096 57.3127 65.0255 58.2804 65.9768 58.2804C66.6928 58.2804 67.3244 57.7209 67.7467 56.8615C68.119 58.1538 68.901 59.0525 69.8143 59.0525C71.0859 59.0525 72.1168 57.3241 72.1168 55.1919C72.1168 53.0598 71.0859 51.3314 69.8143 51.3314Z" fill="#3F3D56"/>
<path d="M44.9369 89.462C43.929 89.462 42.931 89.2623 41.9998 88.8743C41.0686 88.4863 40.2225 87.9175 39.5098 87.2006C38.7971 86.4836 38.2318 85.6324 37.8461 84.6956C37.4604 83.7589 37.2618 82.7548 37.2618 81.7409V77.8802C37.2618 75.8325 38.0705 73.8686 39.5098 72.4205C40.9492 70.9725 42.9013 70.1591 44.9369 70.1591V89.462Z" fill="#FFD600"/>
<path d="M93.9243 70.1591C94.9322 70.1591 95.9303 70.3588 96.8614 70.7469C97.7926 71.1349 98.6387 71.7036 99.3514 72.4206C100.064 73.1376 100.629 73.9887 101.015 74.9255C101.401 75.8623 101.599 76.8663 101.599 77.8803V81.7409C101.599 82.7548 101.401 83.7589 101.015 84.6956C100.629 85.6324 100.064 86.4836 99.3514 87.2006C98.6387 87.9175 97.7926 88.4863 96.8614 88.8743C95.9303 89.2623 94.9322 89.462 93.9243 89.462V70.1591H93.9243Z" fill="#FFD600"/>
<path d="M97.9461 78.4869H96.7284C96.7284 62.9504 84.164 50.3105 68.7202 50.3105C53.2765 50.3105 40.712 62.9504 40.712 78.4869H39.4943C39.4943 62.2749 52.605 49.0854 68.7202 49.0854C84.8355 49.0854 97.9461 62.2749 97.9461 78.4869Z" fill="#FFD600"/>
<path d="M24.6379 54.1358L24.6381 54.1352L24.0031 53.8221L21.324 52.4808L20.3637 52L20.29 52.2203L19 56.0778L22.6305 57.8976L22.6495 57.918L22.4049 58.6012C22.3714 58.6637 22.3428 58.7297 22.3195 58.7983C22.1482 59.3108 22.4718 59.8206 22.7778 59.9641C23.0838 60.1076 23.4708 59.8085 23.6422 59.296C23.8112 58.7906 23.646 58.1484 23.3478 57.9932L23.3481 57.9926L22.7131 57.6795L20.541 56.6795L21.7821 52.9683L21.5982 52.882L20.3566 56.5946L20.088 56.4709L21.3344 52.7439L21.3672 52.7603L23.9205 54.0401L23.9395 54.0606L23.6949 54.7438C23.6614 54.8062 23.6328 54.8722 23.6096 54.9409C23.4382 55.4534 23.7618 55.9631 24.0678 56.1066C24.3738 56.2501 24.7608 55.9511 24.9322 55.4386C25.1012 54.9331 24.936 54.291 24.6379 54.1358Z" fill="#FFD600"/>
<path d="M38 63C36.5793 62.1783 36.8636 60.3752 36.8636 60.3752C36.8278 59.2039 35.8711 59.3697 35.8711 59.3697L35.5229 59.4501C35.3612 59.3741 35.1831 59.3408 35.0052 59.3532L34.4755 59.4434C35.6816 59.73 35.5825 60.7506 35.5825 60.7506L35.7515 61.944L32.5912 60.6543L32.954 59.7889C33.0042 59.709 33.047 59.6246 33.0818 59.5368C33.3384 58.8814 32.8538 58.2295 32.3957 58.046C31.9375 57.8624 31.3581 58.2449 31.1015 58.9003C30.8484 59.5467 31.0958 60.3679 31.5422 60.5663L31.5419 60.5671L32.4925 60.9676L32.4996 60.9449L38 63ZM36.3952 60.9032L36.4965 62.0455C36.1387 61.5376 35.9706 60.9177 36.0221 60.2962C36.0137 60.0752 35.94 59.8617 35.8104 59.6835C36.0096 59.8125 36.1696 59.9947 36.2728 60.21C36.3759 60.4252 36.4183 60.6651 36.3952 60.9032V60.9032Z" fill="#FFD600"/>
<path d="M14.4618 46.2457L14.4621 46.2449L13.5185 45.8151L9.57441 44.1383L10.5699 43.1697C10.7646 42.8857 11.0522 42.6951 11.3724 42.6378C11.6927 42.5804 12.0208 42.6606 12.2882 42.8618L11.9793 42.3597C11.9793 42.3597 11.3986 41.5188 10.5857 42.4085C10.5857 42.4085 9.57989 44.0301 8 43.6168L13.3956 46.1144L13.4239 46.1425L13.0604 47.0801C13.0106 47.1659 12.9681 47.2565 12.9335 47.3507C12.6788 48.0541 13.1599 48.7537 13.6146 48.9507C14.0694 49.1476 14.6445 48.7371 14.8992 48.0338C15.1504 47.34 14.9049 46.4587 14.4618 46.2457Z" fill="#FFD600"/>
<path d="M28.4743 41.3975L28.1073 42.2515C28.0571 42.3296 28.0142 42.4121 27.9793 42.4979C27.7222 43.1385 28.2078 43.7757 28.6667 43.9551C29.1257 44.1345 29.7062 43.7606 29.9633 43.12C30.2168 42.4882 29.969 41.6855 29.5218 41.4915L29.5221 41.4908L28.5697 41.0993L25.3115 39.8493L27.1731 35.2104L26.8972 35.1025L25.0349 39.7432L24.632 39.5887L26.5016 34.9298L26.5508 34.9504L30.3807 36.5502L30.4093 36.5757L30.0423 37.4297C29.9921 37.5078 29.9493 37.5903 29.9143 37.6761C29.6572 38.3167 30.1428 38.9539 30.6017 39.1333C31.0607 39.3127 31.6412 38.9389 31.8983 38.2983C32.1518 37.6664 31.904 36.8637 31.4568 36.6698L31.4571 36.669L30.5047 36.2776L26.6124 34.6537L26.6123 34.6536L26.486 34.601L25.0455 34L23 39.0972L28.4457 41.372L28.4743 41.3975Z" fill="#FFD600"/>
<path d="M12.0773 14.6719L12.078 14.6705L10.4602 13.9951L3.69899 11.3601L5.40546 9.83804C5.40546 9.83804 6.54056 8.25908 8.35126 9.35425L7.82174 8.5652C7.82174 8.5652 6.82617 7.24383 5.43263 8.64187C5.43263 8.64187 3.70838 11.1902 1 10.5407L10.2496 14.4655L10.2982 14.5096L9.67491 15.983C9.58958 16.1178 9.51678 16.2601 9.45743 16.4083C9.0208 17.5135 9.84545 18.6129 10.625 18.9225C11.4046 19.232 12.3906 18.5869 12.8272 17.4817C13.2579 16.3915 12.837 15.0065 12.0773 14.6719Z" fill="#FFD600"/>
<path d="M17 37C13.5497 35.028 14.2402 30.7006 14.2402 30.7006C14.1534 27.8893 11.8299 28.2873 11.8299 28.2873L10.9842 28.4802C10.5914 28.2979 10.1589 28.2179 9.72682 28.2477L8.44047 28.4641C11.3695 29.1521 11.1289 31.6015 11.1289 31.6015L11.5393 34.4655L3.86429 31.3704L4.7455 29.2934C4.86728 29.1016 4.97119 28.899 5.0559 28.6882C5.67906 27.1153 4.50212 25.5508 3.38949 25.1103C2.27687 24.6698 0.869744 25.5878 0.246587 27.1607C-0.368082 28.7121 0.232618 30.683 1.31684 31.1592L1.31593 31.1611L3.62473 32.1222L3.64192 32.0678L17 37ZM13.1025 31.9678L13.3495 34.7186C11.9004 32.7956 12.1966 30.511 12.1966 30.511C12.1761 29.9804 11.9971 29.4682 11.6825 29.0403C13.3472 30.0361 13.1025 31.9678 13.1025 31.9678H13.1025Z" fill="#FFD600"/>
</svg>
