<svg width="75" height="75" viewBox="0 0 75 75" fill="none" xmlns="http://www.w3.org/2000/svg">
<path d="M53.5187 27.7777C53.4972 20.4172 50.5636 13.3644 45.359 8.1597C40.1543 2.95503 33.1014 0.0215379 25.7409 0C25.5022 0 25.2642 0.00304019 25.0268 0.00911889C6.23946 0.489357 -5.58518 20.5268 2.67558 37.4075L19.2595 71.2963C19.2623 72.2777 19.6535 73.2181 20.3474 73.912C21.0414 74.606 21.9817 74.9971 22.9631 75H31.2965L34.6915 64.8148L42.918 75H54.136L57.5311 64.8148L65.7575 75H71.1113C72.0927 74.9971 73.0331 74.606 73.727 73.912C74.421 73.2181 74.8121 72.2777 74.815 71.2963L53.5187 27.7777Z" fill="#F2F2F2"/>
<path d="M12.1607 27.4692C16.4221 27.4692 19.8767 24.0146 19.8767 19.7531C19.8767 15.4916 16.4221 12.037 12.1607 12.037C7.8992 12.037 4.44458 15.4916 4.44458 19.7531C4.44458 24.0146 7.8992 27.4692 12.1607 27.4692Z" fill="#3F3D56"/>
<path d="M32.8397 27.4692C37.1012 27.4692 40.5558 24.0146 40.5558 19.7531C40.5558 15.4916 37.1012 12.037 32.8397 12.037C28.5782 12.037 25.1237 15.4916 25.1237 19.7531C25.1237 24.0146 28.5782 27.4692 32.8397 27.4692Z" fill="#3F3D56"/>
<path d="M12.1607 22.5309C13.6948 22.5309 14.9385 21.2872 14.9385 19.7531C14.9385 18.219 13.6948 16.9753 12.1607 16.9753C10.6266 16.9753 9.38293 18.219 9.38293 19.7531C9.38293 21.2872 10.6266 22.5309 12.1607 22.5309Z" fill="#F2F2F2"/>
<path d="M32.8397 22.5309C34.3738 22.5309 35.6174 21.2872 35.6174 19.7531C35.6174 18.219 34.3738 16.9753 32.8397 16.9753C31.3055 16.9753 30.0619 18.219 30.0619 19.7531C30.0619 21.2872 31.3055 22.5309 32.8397 22.5309Z" fill="#F2F2F2"/>
<path d="M14.9384 16.358C15.7906 16.358 16.4816 15.6671 16.4816 14.8148C16.4816 13.9625 15.7906 13.2716 14.9384 13.2716C14.0861 13.2716 13.3951 13.9625 13.3951 14.8148C13.3951 15.6671 14.0861 16.358 14.9384 16.358Z" fill="#F2F2F2"/>
<path d="M35.6174 16.358C36.4697 16.358 37.1606 15.6671 37.1606 14.8148C37.1606 13.9625 36.4697 13.2716 35.6174 13.2716C34.7651 13.2716 34.0742 13.9625 34.0742 14.8148C34.0742 15.6671 34.7651 16.358 35.6174 16.358Z" fill="#F2F2F2"/>
<path d="M21.9032 41.3966C24.395 41.3966 26.4151 39.3766 26.4151 36.8848C26.4151 34.3929 24.395 32.3729 21.9032 32.3729C19.4114 32.3729 17.3914 34.3929 17.3914 36.8848C17.3914 39.3766 19.4114 41.3966 21.9032 41.3966Z" fill="#3F3D56"/>
</svg>
