<svg width="34" height="33" viewBox="0 0 34 33" fill="none" xmlns="http://www.w3.org/2000/svg">
<path fill-rule="evenodd" clip-rule="evenodd" d="M17.1539 0.0769348C8.01644 0.0769348 0.615479 7.4779 0.615479 16.6154C0.615479 23.9337 5.34961 30.1149 11.9236 32.3063C12.7506 32.451 13.0607 31.9548 13.0607 31.5207C13.0607 31.1279 13.04 29.8255 13.04 28.4404C8.88471 29.2053 7.80971 27.4274 7.47894 26.4971C7.29288 26.0216 6.48663 24.5539 5.78375 24.1611C5.2049 23.851 4.37798 23.0861 5.76307 23.0654C7.06548 23.0447 7.99577 24.2644 8.30586 24.7606C9.79432 27.262 12.1717 26.5591 13.1227 26.125C13.2674 25.05 13.7015 24.3265 14.177 23.913C10.4972 23.4995 6.65202 22.0731 6.65202 15.7471C6.65202 13.9486 7.29288 12.4601 8.34721 11.3024C8.18182 10.889 7.60298 9.19376 8.51259 6.91972C8.51259 6.91972 9.89769 6.48559 13.0607 8.61492C14.3837 8.2428 15.7895 8.05674 17.1953 8.05674C18.6011 8.05674 20.0068 8.2428 21.3299 8.61492C24.4929 6.46492 25.878 6.91972 25.878 6.91972C26.7876 9.19376 26.2087 10.889 26.0434 11.3024C27.0977 12.4601 27.7386 13.9279 27.7386 15.7471C27.7386 22.0938 23.8727 23.4995 20.1929 23.913C20.7924 24.4298 21.3092 25.4221 21.3092 26.9726C21.3092 29.1846 21.2886 30.9625 21.2886 31.5207C21.2886 31.9548 21.5986 32.4716 22.4256 32.3063C25.7088 31.1979 28.5617 29.0878 30.5828 26.2731C32.604 23.4583 33.6915 20.0806 33.6924 16.6154C33.6924 7.4779 26.2914 0.0769348 17.1539 0.0769348Z" fill="white"/>
</svg>