<svg width="36" height="67" viewBox="0 0 36 67" fill="none" xmlns="http://www.w3.org/2000/svg">
<path d="M22.6788 0C29.8752 0 35.728 5.87743 35.8892 13.1902L35.8926 13.5V53.5C35.8926 60.8523 30.1397 66.8318 22.982 66.9965L22.6788 67H11.9648C11.1539 67 10.4966 66.3284 10.4966 65.5C10.4966 64.7203 11.0789 64.0796 11.8234 64.0069L11.9648 64H22.6788C28.2618 64 32.805 59.4519 32.9525 53.7843L32.9562 53.5V13.5C32.9562 7.79608 28.5044 3.15443 22.957 3.00377L22.6788 3H1.95581C1.14495 3 0.48761 2.32843 0.48761 1.5C0.48761 0.720304 1.06989 0.0795513 1.81441 0.00686658L1.95581 0H22.6788Z" fill="#755FE2"/>
</svg>